<svg width="24" height="24" xmlns="http://www.w3.org/2000/svg" fill="none">

 <g>
  <title>Layer 1</title>
  <path id="svg_1" fill="#000000" d="m11.8688,1.0414c-0.0668,0.02683 -0.1328,0.12748 -0.1815,0.27688c-0.0421,0.12914 -0.5835,1.78791 -1.2031,3.68621c-0.61958,1.89836 -1.12649,3.51281 -1.12649,3.58771c0,0.21874 2.38359,7.4632 2.47859,7.533c0.1146,0.0843 0.231,0.0761 0.3482,-0.0243c0.0704,-0.0604 0.4529,-1.1695 1.3093,-3.7964l1.2098,-3.71108l-1.2105,-3.715c-0.8499,-2.60794 -1.24,-3.74031 -1.3093,-3.80016c-0.1086,-0.09379 -0.1588,-0.09968 -0.315,-0.03686zm-8.689,4.56941c-0.0445,0.04898 -0.08092,0.12685 -0.08092,0.17301c0,0.04621 0.33254,1.10724 0.73898,2.35794c0.5031,1.54814 0.77233,2.30714 0.84347,2.37794c0.25485,0.2536 3.90879,2.842 4.01201,2.842c0.10899,0 0.27324,-0.134 0.27314,-0.2229c-0.00005,-0.0247 -0.33803,-1.0822 -0.75111,-2.35c-0.56779,-1.74271 -0.77952,-2.33251 -0.86787,-2.4171c-0.23813,-0.22804 -3.9195,-2.84996 -4.0016,-2.84996c-0.04684,0 -0.1216,0.04008 -0.1661,0.08907zm15.3971,1.36065l-2.0027,1.4487l-0.3026,0.92473c-1.2237,3.73941 -1.2311,3.76391 -1.1729,3.88031c0.1327,0.2651 0.2369,0.2066 2.3409,-1.3137l1.9735,-1.4259l0.7685,-2.35991c0.7946,-2.44009 0.8064,-2.49156 0.5909,-2.57386c-0.0432,-0.01655 -0.1044,-0.02985 -0.1358,-0.0296c-0.0314,0.00029 -0.9583,0.65242 -2.0598,1.44923zm-13.94241,5.96594c-0.15036,0.0868 -3.08081,3.1758 -3.32535,3.5053c-0.28873,0.389 -0.32492,0.6063 -0.30438,1.8288c0.01882,1.1178 0.03379,1.1792 0.35758,1.4623c0.38742,0.3387 0.19016,0.3207 3.81466,0.3478c3.62519,0.0271 3.39566,0.0056 3.72547,0.3491c0.08577,0.0893 0.235,0.3467 0.33162,0.5721c0.45749,1.067 1.15361,1.7197 2.06011,1.9315c0.4923,0.115 1.3035,0.0746 1.7379,-0.0866c0.7897,-0.293 1.4511,-1.0036 1.8006,-1.934c0.058,-0.1547 0.1851,-0.3628 0.2823,-0.4624c0.3581,-0.3672 0.1071,-0.3425 3.7532,-0.3695l3.2761,-0.0244l0.22,-0.1151c0.286,-0.1495 0.4282,-0.2815 0.5426,-0.5038c0.0839,-0.1627 0.0931,-0.2962 0.0931,-1.3418c0,-1.1484 -0.0014,-1.1638 -0.1253,-1.4114c-0.0689,-0.1377 -0.2724,-0.4105 -0.4522,-0.6061c-0.6405,-0.697 -2.8629,-3.0354 -2.9632,-3.1181c-0.1423,-0.1173 -0.3762,-0.1067 -0.572,0.0259c-0.4718,0.3192 -0.8814,0.6369 -0.9243,0.7168c-0.087,0.1619 -0.0536,0.3745 0.0853,0.5429c0.0736,0.0891 0.4174,0.4749 0.7641,0.8574c0.635,0.7005 0.7218,0.8521 0.5729,1.0004c-0.0416,0.0415 -0.6917,0.0639 -2.3666,0.0816l-2.3093,0.0243l-0.144,0.1129c-0.2252,0.1765 -0.3973,0.4721 -0.6432,1.1045c-0.452,1.1626 -0.696,1.5236 -1.1993,1.7741c-0.2582,0.1284 -0.3539,0.1494 -0.6818,0.1494c-0.9551,0 -1.3736,-0.426 -1.9734,-2.0091c-0.20826,-0.5497 -0.42072,-0.8882 -0.65611,-1.0452l-0.16615,-0.1109l-2.18996,0c-1.25289,0 -2.24183,-0.0196 -2.31117,-0.0459c-0.15676,-0.0593 -0.20776,-0.2199 -0.11388,-0.3582c0.04,-0.059 0.34438,-0.4034 0.67639,-0.7653c0.78133,-0.8519 0.82368,-0.908 0.82368,-1.0922c0,-0.2107 -0.0465,-0.2607 -0.63381,-0.6824c-0.52134,-0.3743 -0.65801,-0.4226 -0.8622,-0.3047z" clip-rule="evenodd" fill-rule="evenodd"/>
 </g>
</svg>