<svg width="24" height="24" xmlns="http://www.w3.org/2000/svg" fill="none">

 <g>
  <title>Layer 1</title>
  <path id="svg_1" fill="#000000" d="m11.2409,1.02142c-1.44091,0.10337 -2.72831,0.44802 -4.05195,1.08465c-1.20724,0.58071 -2.06919,1.1893 -3.01591,2.12947c-0.58711,0.58303 -1.09765,1.20915 -1.03208,1.26575c0.06791,0.05864 1.58798,0.91213 1.62449,0.91213c0.01832,0 0.10866,-0.09689 0.2008,-0.21527c0.2066,-0.26543 1.02771,-1.06689 1.37304,-1.34007c0.7374,-0.58343 1.89243,-1.20057 2.80654,-1.49963c0.26591,-0.08697 0.75283,-0.21458 1.08207,-0.28356c0.5648,-0.11837 0.6649,-0.12544 1.7727,-0.12544c1.1078,0 1.2079,0.00707 1.7727,0.12544c1.4664,0.30726 2.8596,0.95604 3.9598,1.84397c0.3561,0.28741 1.2484,1.17425 1.3783,1.36993c0.0454,0.06857 0.0996,0.12463 0.1201,0.12463c0.0394,0 1.5561,-0.84941 1.6287,-0.91213c0.1189,-0.10274 -1.1914,-1.50163 -1.999,-2.13423c-1.2065,-0.94494 -2.6991,-1.67121 -4.2131,-2.04989c-0.9955,-0.24903 -2.3817,-0.36935 -3.4072,-0.29575zm-0.0691,3.79017c-1.67838,0.21748 -3.23274,0.99102 -4.37165,2.17542c-2.29223,2.38389 -2.62158,5.95069 -0.80389,8.70539c0.13569,0.2056 0.26591,0.3739 0.28934,0.3739c0.03472,0 1.16465,-0.6445 1.55888,-0.8891l0.103,-0.0639l-0.21139,-0.2826c-0.11626,-0.1554 -0.31195,-0.4865 -0.43489,-0.7358c-1.40168,-2.8417 0.05415,-6.18964 3.1202,-7.17546c0.7603,-0.24449 1.8796,-0.2971 2.6744,-0.12576c2.9578,0.63777 4.7713,3.60902 3.9413,6.45792c-0.1408,0.4834 -0.4936,1.2069 -0.7665,1.5716l-0.2058,0.2752l0.8018,0.4952c0.441,0.2724 0.8161,0.4953 0.8335,0.4953c0.059,0 0.4699,-0.6271 0.701,-1.0699c0.778,-1.4908 0.9785,-3.2788 0.5508,-4.9121c-0.2244,-0.85677 -0.5005,-1.46213 -1.0067,-2.20717c-0.8436,-1.24168 -2.1571,-2.24023 -3.589,-2.72863c-0.7975,-0.27196 -1.2585,-0.34877 -2.1945,-0.36554c-0.4558,-0.00816 -0.9013,-0.00544 -0.9899,0.00603zm-9.34767,2.88208c-0.35422,0.80997 -0.67818,2.07314 -0.78519,3.06153c-0.07874,0.7272 -0.03301,2.1445 0.09167,2.8412c0.40133,2.2431 1.37374,4.1472 2.9218,5.7215c0.27576,0.2804 0.51551,0.5098 0.53282,0.5098c0.01727,0 0.0664,-0.1071 0.10913,-0.2379c0.04273,-0.1309 0.18942,-0.5796 0.32599,-0.997l0.24832,-0.7591l-0.27991,-0.3286c-1.99261,-2.3391 -2.59561,-5.6955 -1.54884,-8.62046c0.09799,-0.27377 0.16314,-0.51056 0.14481,-0.5262c-0.06736,-0.05764 -1.58337,-0.9027 -1.61933,-0.9027c-0.02045,0 -0.08403,0.10709 -0.14127,0.23793zm19.37337,0.2119c-0.4244,0.24323 -0.7811,0.45156 -0.7926,0.46293c-0.0116,0.01133 0.059,0.24413 0.1567,0.51727c1.0464,2.92373 0.4431,6.28063 -1.5492,8.61933l-0.2799,0.3286l0.2483,0.7591c0.1366,0.4174 0.2833,0.8661 0.326,0.997c0.0427,0.1308 0.0919,0.2379 0.1091,0.2379c0.0733,0 1.0629,-1.0572 1.3898,-1.4848c1.3854,-1.8118 2.1233,-3.898 2.1871,-6.1829c0.0277,-0.9933 -0.0209,-1.5877 -0.203,-2.48365c-0.1742,-0.85679 -0.6489,-2.22555 -0.7687,-2.21685c-0.0286,0.00209 -0.3992,0.2028 -0.8236,0.44607zm-9.7385,0.68504c-0.6704,0.11851 -1.2472,0.40655 -1.74397,0.87098c-1.08112,1.01081 -1.35729,2.57841 -0.68444,3.88521c0.25596,0.4972 0.79389,1.0587 1.26281,1.3181l0.1877,0.1038l0,0.4376c0,0.6752 -0.1536,1.0387 -0.54473,1.2888c-0.09292,0.0595 -0.51082,0.2243 -0.92867,0.3664c-0.41785,0.1421 -0.85145,0.3109 -0.96357,0.375c-0.27765,0.159 -0.64527,0.531 -0.79344,0.803c-0.09816,0.1802 -1.65027,4.8164 -1.65027,4.9295c0,0.017 2.88007,0.031 6.40018,0.031c3.5201,0 6.4002,-0.014 6.4002,-0.031c0,-0.1131 -1.5522,-4.7493 -1.6503,-4.9295c-0.1482,-0.272 -0.5158,-0.644 -0.7935,-0.803c-0.1121,-0.0641 -0.5457,-0.2329 -0.9635,-0.375c-0.4179,-0.1421 -0.8358,-0.3069 -0.9287,-0.3664c-0.3911,-0.2501 -0.5447,-0.6136 -0.5447,-1.2888l0,-0.4376l0.1877,-0.1038c0.4701,-0.2601 1.0068,-0.8209 1.2644,-1.3211c0.4162,-0.8085 0.4739,-1.7213 0.1647,-2.6078c-0.3399,-0.97454 -1.2619,-1.81298 -2.2845,-2.07728c-0.3451,-0.08918 -1.0729,-0.12476 -1.3934,-0.06811z" clip-rule="evenodd" fill-rule="evenodd"/>
 </g>
</svg>